<svg version="1.1" xmlns="http://www.w3.org/2000/svg" xmlns:xlink="http://www.w3.org/1999/xlink" width="1201" height="1271"><defs><clipPath id="bqFmkohHpIfE"><path fill="none" stroke="none" d=" M 0 0 L 1201 0 L 1201 1271 L 0 1271 L 0 0 Z"/></clipPath></defs><g transform="scale(1,1)" clip-path="url(#bqFmkohHpIfE)"><g><rect fill="rgb(255,255,255)" stroke="none" x="0" y="0" width="1201" height="1271" fill-opacity="1"/><path fill="none" stroke="rgb(97,97,97)" paint-order="fill stroke markers" d=" M 1164.9825861651366 641.8779606583698 C 1164.9825861651366 968.2938101142006 912.2551238840515 1232.9061387057209 600.4999999999999 1232.9061387057209 C 288.74487611594816 1232.9061387057209 36.017413834863305 968.2938101142006 36.017413834863305 641.8779606583698 C 36.017413834863305 315.46211120253895 288.74487611594816 50.84978261101878 600.4999999999999 50.84978261101878 C 912.2551238840515 50.84978261101878 1164.9825861651366 315.46211120253895 1164.9825861651366 641.8779606583698 Z" stroke-opacity="0.8" stroke-linecap="round" stroke-linejoin="round" stroke-miterlimit="10" stroke-width="2.5"/><path fill="none" stroke="rgb(21,101,192)" paint-order="fill stroke markers" d=" M 737.4071368576869 68.49640635117248 L 143.80550793217608 989.2489643180061" stroke-opacity="0.8" stroke-linecap="round" stroke-linejoin="round" stroke-miterlimit="10" stroke-width="2.5"/><path fill="none" stroke="rgb(21,101,192)" paint-order="fill stroke markers" d=" M 143.80550793217608 989.2489643180061 L 1066.0721659967642 976.0797851684249" stroke-opacity="0.8" stroke-linecap="round" stroke-linejoin="round" stroke-miterlimit="10" stroke-width="2.5"/><path fill="none" stroke="rgb(21,101,192)" paint-order="fill stroke markers" d=" M 1066.0721659967642 976.0797851684249 L 737.4071368576869 68.49640635117248" stroke-opacity="0.8" stroke-linecap="round" stroke-linejoin="round" stroke-miterlimit="10" stroke-width="2.5"/><path fill="none" stroke="rgb(97,97,97)" paint-order="fill stroke markers" d=" M 600.4999999999999 641.8779606583698 L 602.3453277197458 982.7014078372467" stroke-opacity="0.8" stroke-linecap="round" stroke-linejoin="round" stroke-miterlimit="10" stroke-width="2.5"/><path fill="none" stroke="rgb(97,97,97)" paint-order="fill stroke markers" d=" M 600.4999999999999 641.8779606583698 L 143.80550793217608 989.2489643180061" stroke-opacity="0.8" stroke-linejoin="round" stroke-miterlimit="10" stroke-width="2.5" stroke-dasharray="6.5,4"/><path fill="none" stroke="rgb(97,97,97)" paint-order="fill stroke markers" d=" M 600.4999999999999 641.8779606583698 L 1066.0721659967642 976.0797851684249" stroke-opacity="0.8" stroke-linejoin="round" stroke-miterlimit="10" stroke-width="2.5" stroke-dasharray="6.5,4"/><path fill="rgb(21,101,192)" stroke="none" paint-order="stroke fill markers" d=" M 605.4999999999999 641.8779606583698 C 605.4999999999999 644.6393844075238 603.2614237491539 646.8779606583698 600.4999999999999 646.8779606583698 C 597.7385762508459 646.8779606583698 595.4999999999999 644.6393844075238 595.4999999999999 641.8779606583698 C 595.4999999999999 639.1165369092158 597.7385762508459 636.8779606583698 600.4999999999999 636.8779606583698 C 603.2614237491539 636.8779606583698 605.4999999999999 639.1165369092158 605.4999999999999 641.8779606583698 Z" fill-opacity="1"/><path fill="none" stroke="rgb(0,0,0)" paint-order="fill stroke markers" d=" M 605.4999999999999 641.8779606583698 C 605.4999999999999 644.6393844075238 603.2614237491539 646.8779606583698 600.4999999999999 646.8779606583698 C 597.7385762508459 646.8779606583698 595.4999999999999 644.6393844075238 595.4999999999999 641.8779606583698 C 595.4999999999999 639.1165369092158 597.7385762508459 636.8779606583698 600.4999999999999 636.8779606583698 C 603.2614237491539 636.8779606583698 605.4999999999999 639.1165369092158 605.4999999999999 641.8779606583698 Z" stroke-opacity="1" stroke-linecap="round" stroke-linejoin="round" stroke-miterlimit="10"/><text fill="rgb(21,101,192)" stroke="none" font-family="geogebra-sans-serif, sans-serif" font-size="16px" font-style="normal" font-weight="normal" text-decoration="normal" x="604" y="632" text-anchor="start" dominant-baseline="alphabetic" fill-opacity="1">O</text><text fill="none" stroke="rgb(255,255,255)" font-family="geogebra-sans-serif, sans-serif" font-size="16px" font-style="normal" font-weight="normal" text-decoration="normal" x="604" y="632" text-anchor="start" dominant-baseline="alphabetic" stroke-opacity="1" stroke-linejoin="bevel" stroke-miterlimit="10" stroke-width="3">O</text><text fill="rgb(21,101,192)" stroke="none" font-family="geogebra-sans-serif, sans-serif" font-size="16px" font-style="normal" font-weight="normal" text-decoration="normal" x="604" y="632" text-anchor="start" dominant-baseline="alphabetic" fill-opacity="1">O</text><path fill="rgb(21,101,192)" stroke="none" paint-order="stroke fill markers" d=" M 742.4071368576869 68.49640635117248 C 742.4071368576869 71.25783010032644 740.1685606068409 73.49640635117248 737.4071368576869 73.49640635117248 C 734.6457131085328 73.49640635117248 732.4071368576869 71.25783010032644 732.4071368576869 68.49640635117248 C 732.4071368576869 65.73498260201852 734.6457131085328 63.49640635117248 737.4071368576869 63.49640635117248 C 740.1685606068409 63.49640635117248 742.4071368576869 65.73498260201852 742.4071368576869 68.49640635117248 Z" fill-opacity="1"/><path fill="none" stroke="rgb(0,0,0)" paint-order="fill stroke markers" d=" M 742.4071368576869 68.49640635117248 C 742.4071368576869 71.25783010032644 740.1685606068409 73.49640635117248 737.4071368576869 73.49640635117248 C 734.6457131085328 73.49640635117248 732.4071368576869 71.25783010032644 732.4071368576869 68.49640635117248 C 732.4071368576869 65.73498260201852 734.6457131085328 63.49640635117248 737.4071368576869 63.49640635117248 C 740.1685606068409 63.49640635117248 742.4071368576869 65.73498260201852 742.4071368576869 68.49640635117248 Z" stroke-opacity="1" stroke-linecap="round" stroke-linejoin="round" stroke-miterlimit="10"/><text fill="rgb(21,101,192)" stroke="none" font-family="geogebra-sans-serif, sans-serif" font-size="16px" font-style="normal" font-weight="normal" text-decoration="normal" x="741" y="58" text-anchor="start" dominant-baseline="alphabetic" fill-opacity="1">A</text><text fill="none" stroke="rgb(255,255,255)" font-family="geogebra-sans-serif, sans-serif" font-size="16px" font-style="normal" font-weight="normal" text-decoration="normal" x="741" y="58" text-anchor="start" dominant-baseline="alphabetic" stroke-opacity="1" stroke-linejoin="bevel" stroke-miterlimit="10" stroke-width="3">A</text><text fill="rgb(21,101,192)" stroke="none" font-family="geogebra-sans-serif, sans-serif" font-size="16px" font-style="normal" font-weight="normal" text-decoration="normal" x="741" y="58" text-anchor="start" dominant-baseline="alphabetic" fill-opacity="1">A</text><path fill="rgb(21,101,192)" stroke="none" paint-order="stroke fill markers" d=" M 148.80550793217608 989.2489643180061 C 148.80550793217608 992.0103880671601 146.56693168133006 994.2489643180061 143.80550793217608 994.2489643180061 C 141.0440841830221 994.2489643180061 138.80550793217608 992.0103880671601 138.80550793217608 989.2489643180061 C 138.80550793217608 986.4875405688521 141.0440841830221 984.2489643180061 143.80550793217608 984.2489643180061 C 146.56693168133006 984.2489643180061 148.80550793217608 986.4875405688521 148.80550793217608 989.2489643180061 Z" fill-opacity="1"/><path fill="none" stroke="rgb(0,0,0)" paint-order="fill stroke markers" d=" M 148.80550793217608 989.2489643180061 C 148.80550793217608 992.0103880671601 146.56693168133006 994.2489643180061 143.80550793217608 994.2489643180061 C 141.0440841830221 994.2489643180061 138.80550793217608 992.0103880671601 138.80550793217608 989.2489643180061 C 138.80550793217608 986.4875405688521 141.0440841830221 984.2489643180061 143.80550793217608 984.2489643180061 C 146.56693168133006 984.2489643180061 148.80550793217608 986.4875405688521 148.80550793217608 989.2489643180061 Z" stroke-opacity="1" stroke-linecap="round" stroke-linejoin="round" stroke-miterlimit="10"/><text fill="rgb(21,101,192)" stroke="none" font-family="geogebra-sans-serif, sans-serif" font-size="16px" font-style="normal" font-weight="normal" text-decoration="normal" x="114" y="995" text-anchor="start" dominant-baseline="alphabetic" fill-opacity="1">B</text><text fill="none" stroke="rgb(255,255,255)" font-family="geogebra-sans-serif, sans-serif" font-size="16px" font-style="normal" font-weight="normal" text-decoration="normal" x="114" y="995" text-anchor="start" dominant-baseline="alphabetic" stroke-opacity="1" stroke-linejoin="bevel" stroke-miterlimit="10" stroke-width="3">B</text><text fill="rgb(21,101,192)" stroke="none" font-family="geogebra-sans-serif, sans-serif" font-size="16px" font-style="normal" font-weight="normal" text-decoration="normal" x="114" y="995" text-anchor="start" dominant-baseline="alphabetic" fill-opacity="1">B</text><path fill="rgb(21,101,192)" stroke="none" paint-order="stroke fill markers" d=" M 1071.0721659967642 976.0797851684249 C 1071.0721659967642 978.8412089175789 1068.833589745918 981.0797851684249 1066.0721659967642 981.0797851684249 C 1063.3107422476103 981.0797851684249 1061.0721659967642 978.8412089175789 1061.0721659967642 976.0797851684249 C 1061.0721659967642 973.3183614192709 1063.3107422476103 971.0797851684249 1066.0721659967642 971.0797851684249 C 1068.833589745918 971.0797851684249 1071.0721659967642 973.3183614192709 1071.0721659967642 976.0797851684249 Z" fill-opacity="1"/><path fill="none" stroke="rgb(0,0,0)" paint-order="fill stroke markers" d=" M 1071.0721659967642 976.0797851684249 C 1071.0721659967642 978.8412089175789 1068.833589745918 981.0797851684249 1066.0721659967642 981.0797851684249 C 1063.3107422476103 981.0797851684249 1061.0721659967642 978.8412089175789 1061.0721659967642 976.0797851684249 C 1061.0721659967642 973.3183614192709 1063.3107422476103 971.0797851684249 1066.0721659967642 971.0797851684249 C 1068.833589745918 971.0797851684249 1071.0721659967642 973.3183614192709 1071.0721659967642 976.0797851684249 Z" stroke-opacity="1" stroke-linecap="round" stroke-linejoin="round" stroke-miterlimit="10"/><text fill="rgb(21,101,192)" stroke="none" font-family="geogebra-sans-serif, sans-serif" font-size="16px" font-style="normal" font-weight="normal" text-decoration="normal" x="1078" y="987" text-anchor="start" dominant-baseline="alphabetic" fill-opacity="1">C</text><text fill="none" stroke="rgb(255,255,255)" font-family="geogebra-sans-serif, sans-serif" font-size="16px" font-style="normal" font-weight="normal" text-decoration="normal" x="1078" y="987" text-anchor="start" dominant-baseline="alphabetic" stroke-opacity="1" stroke-linejoin="bevel" stroke-miterlimit="10" stroke-width="3">C</text><text fill="rgb(21,101,192)" stroke="none" font-family="geogebra-sans-serif, sans-serif" font-size="16px" font-style="normal" font-weight="normal" text-decoration="normal" x="1078" y="987" text-anchor="start" dominant-baseline="alphabetic" fill-opacity="1">C</text><path fill="rgb(21,101,192)" stroke="none" paint-order="stroke fill markers" d=" M 607.3453277197458 982.7014078372467 C 607.3453277197458 985.4628315864007 605.1067514688998 987.7014078372467 602.3453277197458 987.7014078372467 C 599.5839039705918 987.7014078372467 597.3453277197458 985.4628315864007 597.3453277197458 982.7014078372467 C 597.3453277197458 979.9399840880927 599.5839039705918 977.7014078372467 602.3453277197458 977.7014078372467 C 605.1067514688998 977.7014078372467 607.3453277197458 979.9399840880927 607.3453277197458 982.7014078372467 Z" fill-opacity="1"/><path fill="none" stroke="rgb(0,0,0)" paint-order="fill stroke markers" d=" M 607.3453277197458 982.7014078372467 C 607.3453277197458 985.4628315864007 605.1067514688998 987.7014078372467 602.3453277197458 987.7014078372467 C 599.5839039705918 987.7014078372467 597.3453277197458 985.4628315864007 597.3453277197458 982.7014078372467 C 597.3453277197458 979.9399840880927 599.5839039705918 977.7014078372467 602.3453277197458 977.7014078372467 C 605.1067514688998 977.7014078372467 607.3453277197458 979.9399840880927 607.3453277197458 982.7014078372467 Z" stroke-opacity="1" stroke-linecap="round" stroke-linejoin="round" stroke-miterlimit="10"/><text fill="rgb(21,101,192)" stroke="none" font-family="geogebra-sans-serif, sans-serif" font-size="16px" font-style="normal" font-weight="normal" text-decoration="normal" x="616" y="971" text-anchor="start" dominant-baseline="alphabetic" fill-opacity="1">A'</text><text fill="none" stroke="rgb(255,255,255)" font-family="geogebra-sans-serif, sans-serif" font-size="16px" font-style="normal" font-weight="normal" text-decoration="normal" x="616" y="971" text-anchor="start" dominant-baseline="alphabetic" stroke-opacity="1" stroke-linejoin="bevel" stroke-miterlimit="10" stroke-width="3">A'</text><text fill="rgb(21,101,192)" stroke="none" font-family="geogebra-sans-serif, sans-serif" font-size="16px" font-style="normal" font-weight="normal" text-decoration="normal" x="616" y="971" text-anchor="start" dominant-baseline="alphabetic" fill-opacity="1">A'</text><g transform="scale(19,19)"><g transform="translate(18.74713246378316,53.22294736842105)"><path fill="rgb(0,0,0)" stroke="none" paint-order="stroke fill markers" d=" M 0.294 -0.64 L 0.294 -0.079 Q 0.294 -0.049 0.306 -0.041 Q 0.323 -0.031 0.387 -0.031 L 0.419 -0.031 L 0.419 0 Q 0.384 -0.003 0.257 -0.003 Q 0.13 -0.003 0.095 0 L 0.095 -0.031 L 0.127 -0.031 Q 0.20400000000000001 -0.031 0.215 -0.049 L 0.216 -0.05 Q 0.22 -0.058 0.22 -0.079 L 0.22 -0.597 Q 0.168 -0.5710000000000001 0.089 -0.5710000000000001 L 0.089 -0.602 Q 0.209 -0.602 0.271 -0.666 Q 0.29 -0.666 0.293 -0.659 L 0.293 -0.659 L 0.293 -0.658 Q 0.294 -0.655 0.294 -0.64 Z"/></g><rect fill="rgb(0,0,0)" stroke="none" x="18.74713246378316" y="53.629455868421054" width="0.5" height="0.039999"/><g transform="translate(18.74713246378316,54.585406368421054)"><path fill="rgb(0,0,0)" stroke="none" paint-order="stroke fill markers" d=" M 0.449 -0.17400000000000002 L 0.449 -0.17400000000000002 L 0.421 0 L 0.05 0 Q 0.05 -0.025 0.056 -0.032 L 0.061 -0.037 L 0.253 -0.251 Q 0.358 -0.369 0.358 -0.47200000000000003 Q 0.358 -0.561 0.304 -0.607 L 0.303 -0.608 L 0.302 -0.608 Q 0.27 -0.635 0.224 -0.635 Q 0.152 -0.635 0.109 -0.5730000000000001 Q 0.097 -0.555 0.089 -0.533 Q 0.092 -0.534 0.10200000000000001 -0.534 Q 0.14200000000000002 -0.534 0.153 -0.498 L 0.153 -0.497 Q 0.155 -0.49 0.155 -0.482 Q 0.155 -0.442 0.117 -0.431 Q 0.109 -0.429 0.10300000000000001 -0.429 Q 0.066 -0.429 0.054 -0.46 Q 0.05 -0.47100000000000003 0.05 -0.485 Q 0.05 -0.562 0.109 -0.617 Q 0.162 -0.666 0.23700000000000002 -0.666 Q 0.34700000000000003 -0.666 0.40800000000000003 -0.592 Q 0.443 -0.549 0.448 -0.49 Q 0.449 -0.481 0.449 -0.47200000000000003 Q 0.449 -0.399 0.394 -0.333 Q 0.365 -0.299 0.304 -0.243 L 0.243 -0.189 L 0.233 -0.18 L 0.127 -0.077 L 0.307 -0.077 Q 0.395 -0.077 0.402 -0.085 Q 0.41200000000000003 -0.099 0.424 -0.17400000000000002 L 0.449 -0.17400000000000002 Z"/></g><g transform="translate(19.476721067917197,53.89945536842105)"><path fill="rgb(0,0,0)" stroke="none" paint-order="stroke fill markers" d=" M 0.373 -0.378 Q 0.378 -0.41200000000000003 0.404 -0.42 Q 0.40900000000000003 -0.422 0.41500000000000004 -0.422 Q 0.441 -0.422 0.444 -0.395 Q 0.444 -0.389 0.437 -0.361 L 0.401 -0.221 Q 0.386 -0.158 0.379 -0.131 Q 0.366 -0.079 0.366 -0.057 Q 0.366 -0.011 0.396 -0.011 Q 0.434 -0.011 0.46 -0.091 Q 0.465 -0.108 0.47200000000000003 -0.135 Q 0.48 -0.152 0.486 -0.153 Q 0.498 -0.153 0.498 -0.14300000000000002 Q 0.498 -0.128 0.48 -0.073 Q 0.47400000000000003 -0.056 0.468 -0.044 Q 0.44 0.011 0.394 0.011 Q 0.338 0.011 0.313 -0.037 Q 0.306 -0.049 0.303 -0.064 Q 0.24 0.011 0.17300000000000001 0.011 Q 0.098 0.011 0.062 -0.057 Q 0.04 -0.097 0.04 -0.149 Q 0.04 -0.257 0.115 -0.34900000000000003 Q 0.185 -0.433 0.267 -0.441 Q 0.274 -0.442 0.281 -0.442 Q 0.342 -0.442 0.373 -0.378 M 0.308 -0.11900000000000001 L 0.308 -0.11900000000000001 L 0.358 -0.315 Q 0.361 -0.33 0.361 -0.332 Q 0.361 -0.353 0.343 -0.383 Q 0.321 -0.42 0.28200000000000003 -0.42 Q 0.23 -0.42 0.183 -0.352 Q 0.17400000000000002 -0.339 0.166 -0.324 Q 0.137 -0.266 0.117 -0.159 Q 0.111 -0.125 0.111 -0.105 Q 0.111 -0.037 0.149 -0.017 Q 0.16 -0.011 0.17500000000000002 -0.011 Q 0.231 -0.011 0.28800000000000003 -0.082 Q 0.302 -0.098 0.307 -0.115 L 0.307 -0.116 Q 0.308 -0.11800000000000001 0.308 -0.11900000000000001 Z"/></g></g><g transform="scale(19,19)"><g transform="translate(41.37871141115158,52.85452631578947)"><path fill="rgb(0,0,0)" stroke="none" paint-order="stroke fill markers" d=" M 0.294 -0.64 L 0.294 -0.079 Q 0.294 -0.049 0.306 -0.041 Q 0.323 -0.031 0.387 -0.031 L 0.419 -0.031 L 0.419 0 Q 0.384 -0.003 0.257 -0.003 Q 0.13 -0.003 0.095 0 L 0.095 -0.031 L 0.127 -0.031 Q 0.20400000000000001 -0.031 0.215 -0.049 L 0.216 -0.05 Q 0.22 -0.058 0.22 -0.079 L 0.22 -0.597 Q 0.168 -0.5710000000000001 0.089 -0.5710000000000001 L 0.089 -0.602 Q 0.209 -0.602 0.271 -0.666 Q 0.29 -0.666 0.293 -0.659 L 0.293 -0.659 L 0.293 -0.658 Q 0.294 -0.655 0.294 -0.64 Z"/></g><rect fill="rgb(0,0,0)" stroke="none" x="41.37871141115158" y="53.26103481578947" width="0.5" height="0.039999"/><g transform="translate(41.37871141115158,54.21698531578947)"><path fill="rgb(0,0,0)" stroke="none" paint-order="stroke fill markers" d=" M 0.449 -0.17400000000000002 L 0.449 -0.17400000000000002 L 0.421 0 L 0.05 0 Q 0.05 -0.025 0.056 -0.032 L 0.061 -0.037 L 0.253 -0.251 Q 0.358 -0.369 0.358 -0.47200000000000003 Q 0.358 -0.561 0.304 -0.607 L 0.303 -0.608 L 0.302 -0.608 Q 0.27 -0.635 0.224 -0.635 Q 0.152 -0.635 0.109 -0.5730000000000001 Q 0.097 -0.555 0.089 -0.533 Q 0.092 -0.534 0.10200000000000001 -0.534 Q 0.14200000000000002 -0.534 0.153 -0.498 L 0.153 -0.497 Q 0.155 -0.49 0.155 -0.482 Q 0.155 -0.442 0.117 -0.431 Q 0.109 -0.429 0.10300000000000001 -0.429 Q 0.066 -0.429 0.054 -0.46 Q 0.05 -0.47100000000000003 0.05 -0.485 Q 0.05 -0.562 0.109 -0.617 Q 0.162 -0.666 0.23700000000000002 -0.666 Q 0.34700000000000003 -0.666 0.40800000000000003 -0.592 Q 0.443 -0.549 0.448 -0.49 Q 0.449 -0.481 0.449 -0.47200000000000003 Q 0.449 -0.399 0.394 -0.333 Q 0.365 -0.299 0.304 -0.243 L 0.243 -0.189 L 0.233 -0.18 L 0.127 -0.077 L 0.307 -0.077 Q 0.395 -0.077 0.402 -0.085 Q 0.41200000000000003 -0.099 0.424 -0.17400000000000002 L 0.449 -0.17400000000000002 Z"/></g><g transform="translate(42.108300015285614,53.53103431578947)"><path fill="rgb(0,0,0)" stroke="none" paint-order="stroke fill markers" d=" M 0.373 -0.378 Q 0.378 -0.41200000000000003 0.404 -0.42 Q 0.40900000000000003 -0.422 0.41500000000000004 -0.422 Q 0.441 -0.422 0.444 -0.395 Q 0.444 -0.389 0.437 -0.361 L 0.401 -0.221 Q 0.386 -0.158 0.379 -0.131 Q 0.366 -0.079 0.366 -0.057 Q 0.366 -0.011 0.396 -0.011 Q 0.434 -0.011 0.46 -0.091 Q 0.465 -0.108 0.47200000000000003 -0.135 Q 0.48 -0.152 0.486 -0.153 Q 0.498 -0.153 0.498 -0.14300000000000002 Q 0.498 -0.128 0.48 -0.073 Q 0.47400000000000003 -0.056 0.468 -0.044 Q 0.44 0.011 0.394 0.011 Q 0.338 0.011 0.313 -0.037 Q 0.306 -0.049 0.303 -0.064 Q 0.24 0.011 0.17300000000000001 0.011 Q 0.098 0.011 0.062 -0.057 Q 0.04 -0.097 0.04 -0.149 Q 0.04 -0.257 0.115 -0.34900000000000003 Q 0.185 -0.433 0.267 -0.441 Q 0.274 -0.442 0.281 -0.442 Q 0.342 -0.442 0.373 -0.378 M 0.308 -0.11900000000000001 L 0.308 -0.11900000000000001 L 0.358 -0.315 Q 0.361 -0.33 0.361 -0.332 Q 0.361 -0.353 0.343 -0.383 Q 0.321 -0.42 0.28200000000000003 -0.42 Q 0.23 -0.42 0.183 -0.352 Q 0.17400000000000002 -0.339 0.166 -0.324 Q 0.137 -0.266 0.117 -0.159 Q 0.111 -0.125 0.111 -0.105 Q 0.111 -0.037 0.149 -0.017 Q 0.16 -0.011 0.17500000000000002 -0.011 Q 0.231 -0.011 0.28800000000000003 -0.082 Q 0.302 -0.098 0.307 -0.115 L 0.307 -0.116 Q 0.308 -0.11800000000000001 0.308 -0.11900000000000001 Z"/></g></g><text fill="rgb(0,0,0)" stroke="none" font-family="geogebra-sans-serif, sans-serif" font-size="16px" font-style="normal" font-weight="normal" text-decoration="normal" x="402" y="765" text-anchor="start" dominant-baseline="alphabetic" fill-opacity="1">R</text><text fill="rgb(0,0,0)" stroke="none" font-family="geogebra-sans-serif, sans-serif" font-size="16px" font-style="normal" font-weight="normal" text-decoration="normal" x="810" y="780" text-anchor="start" dominant-baseline="alphabetic" fill-opacity="1">R</text><text fill="rgb(0,0,0)" stroke="none" font-family="geogebra-sans-serif, sans-serif" font-size="16px" font-style="normal" font-weight="normal" text-decoration="normal" x="416" y="506" text-anchor="start" dominant-baseline="alphabetic" fill-opacity="1">c</text><text fill="rgb(0,0,0)" stroke="none" font-family="geogebra-sans-serif, sans-serif" font-size="16px" font-style="normal" font-weight="normal" text-decoration="normal" x="921" y="533" text-anchor="start" dominant-baseline="alphabetic" fill-opacity="1">b</text></g></g></svg>