<svg version="1.1" xmlns="http://www.w3.org/2000/svg" xmlns:xlink="http://www.w3.org/1999/xlink" width="1307" height="1271"><defs><clipPath id="AmtdGRDWZznf"><path fill="none" stroke="none" d=" M 0 0 L 1307 0 L 1307 1271 L 0 1271 L 0 0 Z"/></clipPath></defs><g transform="scale(1,1)" clip-path="url(#AmtdGRDWZznf)"><g><rect fill="rgb(255,255,255)" stroke="none" x="0" y="0" width="1307" height="1271" fill-opacity="1"/><path fill="none" stroke="rgb(97,97,97)" paint-order="fill stroke markers" d=" M 625.0434731252374 385 C 625.0434731252374 486.64440351296207 542.6444035129621 569.0434731252375 441 569.0434731252375 C 339.3555964870379 569.0434731252375 256.9565268747625 486.64440351296207 256.9565268747625 385 C 256.9565268747625 283.35559648703793 339.3555964870379 200.95652687476255 441 200.95652687476255 C 542.6444035129621 200.95652687476255 625.0434731252374 283.35559648703793 625.0434731252374 385 Z" stroke-opacity="0.8" stroke-linecap="round" stroke-linejoin="round" stroke-miterlimit="10" stroke-width="2.5"/><path fill="none" stroke="rgb(97,97,97)" paint-order="fill stroke markers" d=" M 552.670124274412 568.6490585853725 C 552.670124274412 636.9736881438387 497.2820683397532 692.3617440784976 428.957438781287 692.3617440784976 C 360.63280922282087 692.3617440784976 305.244753288162 636.9736881438387 305.244753288162 568.6490585853725 C 305.244753288162 500.32442902690633 360.63280922282087 444.93637309224744 428.957438781287 444.93637309224744 C 497.2820683397532 444.93637309224744 552.670124274412 500.32442902690633 552.670124274412 568.6490585853725 Z" stroke-opacity="0.8" stroke-linecap="round" stroke-linejoin="round" stroke-miterlimit="10" stroke-width="2.5"/><path fill="none" stroke="rgb(97,97,97)" paint-order="fill stroke markers" d=" M 466.5891438882758 405 C 466.5891438882758 462.2107044175225 420.2107044175225 508.5891438882758 363 508.5891438882758 C 305.7892955824775 508.5891438882758 259.4108561117242 462.2107044175225 259.4108561117242 405 C 259.4108561117242 347.7892955824775 305.7892955824775 301.4108561117242 363 301.4108561117242 C 420.2107044175225 301.4108561117242 466.5891438882758 347.7892955824775 466.5891438882758 405 Z" stroke-opacity="0.8" stroke-linecap="round" stroke-linejoin="round" stroke-miterlimit="10" stroke-width="2.5"/><path fill="rgb(21,101,192)" stroke="none" paint-order="stroke fill markers" d=" M 446 385 C 446 387.76142374915395 443.76142374915395 390 441 390 C 438.23857625084605 390 436 387.76142374915395 436 385 C 436 382.23857625084605 438.23857625084605 380 441 380 C 443.76142374915395 380 446 382.23857625084605 446 385 Z" fill-opacity="1"/><path fill="none" stroke="rgb(0,0,0)" paint-order="fill stroke markers" d=" M 446 385 C 446 387.76142374915395 443.76142374915395 390 441 390 C 438.23857625084605 390 436 387.76142374915395 436 385 C 436 382.23857625084605 438.23857625084605 380 441 380 C 443.76142374915395 380 446 382.23857625084605 446 385 Z" stroke-opacity="1" stroke-linecap="round" stroke-linejoin="round" stroke-miterlimit="10"/><text fill="rgb(21,101,192)" stroke="none" font-family="geogebra-sans-serif, sans-serif" font-size="16px" font-style="normal" font-weight="normal" text-decoration="normal" x="445" y="375" text-anchor="start" dominant-baseline="alphabetic" fill-opacity="1">A</text><text fill="none" stroke="rgb(255,255,255)" font-family="geogebra-sans-serif, sans-serif" font-size="16px" font-style="normal" font-weight="normal" text-decoration="normal" x="445" y="375" text-anchor="start" dominant-baseline="alphabetic" stroke-opacity="1" stroke-linejoin="bevel" stroke-miterlimit="10" stroke-width="3">A</text><text fill="rgb(21,101,192)" stroke="none" font-family="geogebra-sans-serif, sans-serif" font-size="16px" font-style="normal" font-weight="normal" text-decoration="normal" x="445" y="375" text-anchor="start" dominant-baseline="alphabetic" fill-opacity="1">A</text><path fill="rgb(21,101,192)" stroke="none" paint-order="stroke fill markers" d=" M 570 521 C 570 523.761423749154 567.761423749154 526 565 526 C 562.238576250846 526 560 523.761423749154 560 521 C 560 518.238576250846 562.238576250846 516 565 516 C 567.761423749154 516 570 518.238576250846 570 521 Z" fill-opacity="1"/><path fill="none" stroke="rgb(0,0,0)" paint-order="fill stroke markers" d=" M 570 521 C 570 523.761423749154 567.761423749154 526 565 526 C 562.238576250846 526 560 523.761423749154 560 521 C 560 518.238576250846 562.238576250846 516 565 516 C 567.761423749154 516 570 518.238576250846 570 521 Z" stroke-opacity="1" stroke-linecap="round" stroke-linejoin="round" stroke-miterlimit="10"/><text fill="rgb(21,101,192)" stroke="none" font-family="geogebra-sans-serif, sans-serif" font-size="16px" font-style="normal" font-weight="normal" text-decoration="normal" x="569" y="511" text-anchor="start" dominant-baseline="alphabetic" fill-opacity="1">B</text><text fill="none" stroke="rgb(255,255,255)" font-family="geogebra-sans-serif, sans-serif" font-size="16px" font-style="normal" font-weight="normal" text-decoration="normal" x="569" y="511" text-anchor="start" dominant-baseline="alphabetic" stroke-opacity="1" stroke-linejoin="bevel" stroke-miterlimit="10" stroke-width="3">B</text><text fill="rgb(21,101,192)" stroke="none" font-family="geogebra-sans-serif, sans-serif" font-size="16px" font-style="normal" font-weight="normal" text-decoration="normal" x="569" y="511" text-anchor="start" dominant-baseline="alphabetic" fill-opacity="1">B</text><path fill="rgb(21,101,192)" stroke="none" paint-order="stroke fill markers" d=" M 433.957438781287 568.6490585853725 C 433.957438781287 571.4104823345265 431.71886253044096 573.6490585853725 428.957438781287 573.6490585853725 C 426.19601503213306 573.6490585853725 423.957438781287 571.4104823345265 423.957438781287 568.6490585853725 C 423.957438781287 565.8876348362185 426.19601503213306 563.6490585853725 428.957438781287 563.6490585853725 C 431.71886253044096 563.6490585853725 433.957438781287 565.8876348362185 433.957438781287 568.6490585853725 Z" fill-opacity="1"/><path fill="none" stroke="rgb(0,0,0)" paint-order="fill stroke markers" d=" M 433.957438781287 568.6490585853725 C 433.957438781287 571.4104823345265 431.71886253044096 573.6490585853725 428.957438781287 573.6490585853725 C 426.19601503213306 573.6490585853725 423.957438781287 571.4104823345265 423.957438781287 568.6490585853725 C 423.957438781287 565.8876348362185 426.19601503213306 563.6490585853725 428.957438781287 563.6490585853725 C 431.71886253044096 563.6490585853725 433.957438781287 565.8876348362185 433.957438781287 568.6490585853725 Z" stroke-opacity="1" stroke-linecap="round" stroke-linejoin="round" stroke-miterlimit="10"/><text fill="rgb(21,101,192)" stroke="none" font-family="geogebra-sans-serif, sans-serif" font-size="16px" font-style="normal" font-weight="normal" text-decoration="normal" x="433" y="559" text-anchor="start" dominant-baseline="alphabetic" fill-opacity="1">C</text><text fill="none" stroke="rgb(255,255,255)" font-family="geogebra-sans-serif, sans-serif" font-size="16px" font-style="normal" font-weight="normal" text-decoration="normal" x="433" y="559" text-anchor="start" dominant-baseline="alphabetic" stroke-opacity="1" stroke-linejoin="bevel" stroke-miterlimit="10" stroke-width="3">C</text><text fill="rgb(21,101,192)" stroke="none" font-family="geogebra-sans-serif, sans-serif" font-size="16px" font-style="normal" font-weight="normal" text-decoration="normal" x="433" y="559" text-anchor="start" dominant-baseline="alphabetic" fill-opacity="1">C</text><path fill="rgb(21,101,192)" stroke="none" paint-order="stroke fill markers" d=" M 311 555 C 311 557.761423749154 308.76142374915395 560 306 560 C 303.23857625084605 560 301 557.761423749154 301 555 C 301 552.238576250846 303.23857625084605 550 306 550 C 308.76142374915395 550 311 552.238576250846 311 555 Z" fill-opacity="1"/><path fill="none" stroke="rgb(0,0,0)" paint-order="fill stroke markers" d=" M 311 555 C 311 557.761423749154 308.76142374915395 560 306 560 C 303.23857625084605 560 301 557.761423749154 301 555 C 301 552.238576250846 303.23857625084605 550 306 550 C 308.76142374915395 550 311 552.238576250846 311 555 Z" stroke-opacity="1" stroke-linecap="round" stroke-linejoin="round" stroke-miterlimit="10"/><text fill="rgb(21,101,192)" stroke="none" font-family="geogebra-sans-serif, sans-serif" font-size="16px" font-style="normal" font-weight="normal" text-decoration="normal" x="310" y="545" text-anchor="start" dominant-baseline="alphabetic" fill-opacity="1">D</text><text fill="none" stroke="rgb(255,255,255)" font-family="geogebra-sans-serif, sans-serif" font-size="16px" font-style="normal" font-weight="normal" text-decoration="normal" x="310" y="545" text-anchor="start" dominant-baseline="alphabetic" stroke-opacity="1" stroke-linejoin="bevel" stroke-miterlimit="10" stroke-width="3">D</text><text fill="rgb(21,101,192)" stroke="none" font-family="geogebra-sans-serif, sans-serif" font-size="16px" font-style="normal" font-weight="normal" text-decoration="normal" x="310" y="545" text-anchor="start" dominant-baseline="alphabetic" fill-opacity="1">D</text><path fill="rgb(21,101,192)" stroke="none" paint-order="stroke fill markers" d=" M 368 405 C 368 407.76142374915395 365.76142374915395 410 363 410 C 360.23857625084605 410 358 407.76142374915395 358 405 C 358 402.23857625084605 360.23857625084605 400 363 400 C 365.76142374915395 400 368 402.23857625084605 368 405 Z" fill-opacity="1"/><path fill="none" stroke="rgb(0,0,0)" paint-order="fill stroke markers" d=" M 368 405 C 368 407.76142374915395 365.76142374915395 410 363 410 C 360.23857625084605 410 358 407.76142374915395 358 405 C 358 402.23857625084605 360.23857625084605 400 363 400 C 365.76142374915395 400 368 402.23857625084605 368 405 Z" stroke-opacity="1" stroke-linecap="round" stroke-linejoin="round" stroke-miterlimit="10"/><text fill="rgb(21,101,192)" stroke="none" font-family="geogebra-sans-serif, sans-serif" font-size="16px" font-style="normal" font-weight="normal" text-decoration="normal" x="367" y="395" text-anchor="start" dominant-baseline="alphabetic" fill-opacity="1">E</text><text fill="none" stroke="rgb(255,255,255)" font-family="geogebra-sans-serif, sans-serif" font-size="16px" font-style="normal" font-weight="normal" text-decoration="normal" x="367" y="395" text-anchor="start" dominant-baseline="alphabetic" stroke-opacity="1" stroke-linejoin="bevel" stroke-miterlimit="10" stroke-width="3">E</text><text fill="rgb(21,101,192)" stroke="none" font-family="geogebra-sans-serif, sans-serif" font-size="16px" font-style="normal" font-weight="normal" text-decoration="normal" x="367" y="395" text-anchor="start" dominant-baseline="alphabetic" fill-opacity="1">E</text><path fill="rgb(21,101,192)" stroke="none" paint-order="stroke fill markers" d=" M 269.2285424716924 436.22354735195273 C 269.2285424716924 438.9849711011067 266.9899662208463 441.22354735195273 264.2285424716924 441.22354735195273 C 261.46711872253843 441.22354735195273 259.2285424716924 438.9849711011067 259.2285424716924 436.22354735195273 C 259.2285424716924 433.4621236027988 261.46711872253843 431.22354735195273 264.2285424716924 431.22354735195273 C 266.9899662208463 431.22354735195273 269.2285424716924 433.4621236027988 269.2285424716924 436.22354735195273 Z" fill-opacity="1"/><path fill="none" stroke="rgb(0,0,0)" paint-order="fill stroke markers" d=" M 269.2285424716924 436.22354735195273 C 269.2285424716924 438.9849711011067 266.9899662208463 441.22354735195273 264.2285424716924 441.22354735195273 C 261.46711872253843 441.22354735195273 259.2285424716924 438.9849711011067 259.2285424716924 436.22354735195273 C 259.2285424716924 433.4621236027988 261.46711872253843 431.22354735195273 264.2285424716924 431.22354735195273 C 266.9899662208463 431.22354735195273 269.2285424716924 433.4621236027988 269.2285424716924 436.22354735195273 Z" stroke-opacity="1" stroke-linecap="round" stroke-linejoin="round" stroke-miterlimit="10"/><text fill="rgb(21,101,192)" stroke="none" font-family="geogebra-sans-serif, sans-serif" font-size="16px" font-style="normal" font-weight="normal" text-decoration="normal" x="268" y="426" text-anchor="start" dominant-baseline="alphabetic" fill-opacity="1">F</text><text fill="none" stroke="rgb(255,255,255)" font-family="geogebra-sans-serif, sans-serif" font-size="16px" font-style="normal" font-weight="normal" text-decoration="normal" x="268" y="426" text-anchor="start" dominant-baseline="alphabetic" stroke-opacity="1" stroke-linejoin="bevel" stroke-miterlimit="10" stroke-width="3">F</text><text fill="rgb(21,101,192)" stroke="none" font-family="geogebra-sans-serif, sans-serif" font-size="16px" font-style="normal" font-weight="normal" text-decoration="normal" x="268" y="426" text-anchor="start" dominant-baseline="alphabetic" fill-opacity="1">F</text></g></g></svg>